<svg aria-hidden="true" style="position: absolute; width: 0; height: 0; overflow: hidden;" version="1.1" xmlns="http://www.w3.org/2000/svg" xmlns:xlink="http://www.w3.org/1999/xlink">
<defs>
<symbol id="icon-ru" viewBox="0 0 32 32">
<path d="M16 0c-8.8 0-16 7.2-16 16s7.2 16 16 16c8.8 0 16-7.2 16-16s-7.2-16-16-16v0zM27.040 9.6h-4.64c-0.48-2.080-1.28-3.84-2.24-5.76 2.88 1.12 5.44 3.040 6.88 5.76v0zM16 3.2c1.28 1.92 2.4 4 3.040 6.4h-6.080c0.64-2.24 1.76-4.48 3.040-6.4v0zM3.68 19.2c-0.32-0.96-0.48-2.080-0.48-3.2s0.16-2.24 0.48-3.2h5.44c-0.16 1.12-0.16 2.080-0.16 3.2s0.16 2.080 0.16 3.2h-5.44zM4.96 22.4h4.64c0.48 2.080 1.28 3.84 2.24 5.76-2.88-1.12-5.44-3.040-6.88-5.76v0zM9.6 9.6h-4.64c1.6-2.72 4-4.64 6.88-5.76-0.96 1.92-1.76 3.68-2.24 5.76v0zM16 28.8c-1.28-1.92-2.4-4-3.040-6.4h6.080c-0.64 2.24-1.76 4.48-3.040 6.4v0zM19.68 19.2h-7.36c-0.16-1.12-0.32-2.080-0.32-3.2s0.16-2.080 0.32-3.2h7.52c0.16 1.12 0.32 2.080 0.32 3.2s-0.32 2.080-0.48 3.2v0zM20.16 28.16c0.96-1.76 1.76-3.68 2.24-5.76h4.64c-1.44 2.72-4 4.64-6.88 5.76v0zM23.040 19.2c0.16-1.12 0.16-2.080 0.16-3.2s-0.16-2.080-0.16-3.2h5.44c0.32 0.96 0.48 2.080 0.48 3.2s-0.16 2.24-0.48 3.2h-5.44z"></path>
</symbol>
<symbol id="icon-en" viewBox="0 0 32 32">
<path d="M19.984 22.515c-1.089 0.848-2.477 1.36-3.985 1.36s-2.895-0.512-3.999-1.371l0.015 0.011c-1.532 0.702-2.577 2.222-2.578 3.987v3.498h13.125v-3.498c-0.001-1.764-1.046-3.285-2.551-3.976l-0.027-0.011z"></path>
<path d="M20.813 17.313c0 2.658-2.155 4.813-4.813 4.813s-4.813-2.155-4.813-4.813c0-2.658 2.155-4.813 4.813-4.813s4.813 2.155 4.813 4.813z"></path>
<path d="M28.249 2h-6.998c-0.967 0-1.751 0.784-1.751 1.751v0 5.54c0 0.967 0.784 1.751 1.751 1.751v0h1.895v2.771l3.208-2.771h1.895c0 0 0 0 0 0 0.967 0 1.751-0.784 1.751-1.751 0 0 0 0 0 0v0-5.54c0-0.967-0.784-1.751-1.751-1.751v0z"></path>
<path d="M10.75 10.409v-3.013c0 0 0 0 0-0 0-0.806-0.653-1.459-1.459-1.459h-5.832c0 0 0 0 0 0-0.806 0-1.459 0.653-1.459 1.459 0 0 0 0 0 0v0 3.013c0 0.806 0.653 1.459 1.459 1.459 0 0 0 0 0 0h1.506l2.819 2.382v-2.382h1.506c0.806 0 1.459-0.653 1.459-1.459v0z"></path>
</symbol>
<symbol id="icon-ukr" viewBox="0 0 32 32">
<path d="M4.5 10h1.5c0.276 0 0.5-0.224 0.5-0.5s-0.224-0.5-0.5-0.5v0h-1.5c-0.276 0-0.5 0.224-0.5 0.5s0.224 0.5 0.5 0.5v0z"></path>
<path d="M13 12.5h-8.5c-0.276 0-0.5 0.224-0.5 0.5s0.224 0.5 0.5 0.5v0h8.5c0.276 0 0.5-0.224 0.5-0.5s-0.224-0.5-0.5-0.5v0z"></path>
<path d="M13 16h-8.5c-0.276 0-0.5 0.224-0.5 0.5s0.224 0.5 0.5 0.5v0h8.5c0.276 0 0.5-0.224 0.5-0.5s-0.224-0.5-0.5-0.5v0z"></path>
<path d="M13 19.5h-8.5c-0.276 0-0.5 0.224-0.5 0.5s0.224 0.5 0.5 0.5v0h8.5c0.276 0 0.5-0.224 0.5-0.5s-0.224-0.5-0.5-0.5v0z"></path>
<path d="M13 23h-8.5c-0.276 0-0.5 0.224-0.5 0.5s0.224 0.5 0.5 0.5v0h8.5c0.276 0 0.5-0.224 0.5-0.5s-0.224-0.5-0.5-0.5v0z"></path>
<path d="M27.5 9h-1.5c-0.276 0-0.5 0.224-0.5 0.5s0.224 0.5 0.5 0.5v0h1.5c0.276 0 0.5-0.224 0.5-0.5s-0.224-0.5-0.5-0.5v0z"></path>
<path d="M27.5 12.5h-8.5c-0.276 0-0.5 0.224-0.5 0.5s0.224 0.5 0.5 0.5v0h8.5c0.276 0 0.5-0.224 0.5-0.5s-0.224-0.5-0.5-0.5v0z"></path>
<path d="M27.5 16h-8.5c-0.276 0-0.5 0.224-0.5 0.5s0.224 0.5 0.5 0.5v0h8.5c0.276 0 0.5-0.224 0.5-0.5s-0.224-0.5-0.5-0.5v0z"></path>
<path d="M27.5 19.5h-8.5c-0.276 0-0.5 0.224-0.5 0.5s0.224 0.5 0.5 0.5v0h8.5c0.276 0 0.5-0.224 0.5-0.5s-0.224-0.5-0.5-0.5v0z"></path>
<path d="M27.5 23h-8.5c-0.276 0-0.5 0.224-0.5 0.5s0.224 0.5 0.5 0.5v0h8.5c0.276 0 0.5-0.224 0.5-0.5s-0.224-0.5-0.5-0.5v0z"></path>
<path d="M17.5 6.5c0-0.276-0.224-0.5-0.5-0.5v0h-1.5v1h1.5c0.276 0 0.5-0.224 0.5-0.5v0z"></path>
<path d="M28.5 5h-4v-2.5c0-0.828-0.672-1.5-1.5-1.5v0h-14c-0.828 0-1.5 0.672-1.5 1.5v0 2.5h-4c-1.381 0-2.5 1.119-2.5 2.5v0 22c0 0.828 0.672 1.5 1.5 1.5v0h27c0.828 0 1.5-0.672 1.5-1.5v0-22c0-1.381-1.119-2.5-2.5-2.5v0zM19.5 3.5c0-0.276 0.224-0.5 0.5-0.5v0h2c0.276 0 0.5 0.224 0.5 0.5s-0.224 0.5-0.5 0.5v0h-1.5v3h1.5c0.276 0 0.5 0.224 0.5 0.5s-0.224 0.5-0.5 0.5v0h-2c-0.276 0-0.5-0.224-0.5-0.5v0zM14.5 5.5v-2c0-0.276 0.224-0.5 0.5-0.5v0h2c0.828 0 1.5 0.672 1.5 1.5v0c-0.002 0.386-0.15 0.737-0.391 1.001l0.001-0.001c0.24 0.263 0.388 0.614 0.39 1v0c0 0.828-0.672 1.5-1.5 1.5v0h-2c-0.276 0-0.5-0.224-0.5-0.5v0zM9.53 7.325l1.5-4c0.072-0.194 0.255-0.329 0.47-0.329s0.398 0.136 0.469 0.326l0.001 0.003 1.5 4c0.020 0.052 0.032 0.113 0.032 0.176 0 0.214-0.134 0.397-0.324 0.468l-0.003 0.001c-0.051 0.019-0.109 0.030-0.171 0.030-0.002 0-0.003 0-0.005-0h0c-0 0-0.001 0-0.002 0-0.213 0-0.395-0.134-0.467-0.322l-0.001-0.003-1.030-2.75-1.030 2.75c-0.073 0.192-0.256 0.327-0.47 0.327-0.277 0-0.502-0.225-0.502-0.502 0-0.063 0.012-0.123 0.033-0.178l-0.001 0.003zM11.16 27h-7.66c-0.828 0-1.5-0.672-1.5-1.5v0-18c0-0.828 0.672-1.5 1.5-1.5v0h4v2.5c0 0.828 0.672 1.5 1.5 1.5v0h0.5v1c0.001 0.194 0.111 0.361 0.272 0.444l0.003 0.001c0.063 0.035 0.137 0.055 0.217 0.055 0.003 0 0.006-0 0.008-0h-0c0.113 0 0.217-0.038 0.301-0.101l-0.001 0.001 1.865-1.4h3.335v19.12l-0.115-0.12c-1.012-1.221-2.528-1.994-4.224-2h-0.001zM30 25.5c0 0.828-0.672 1.5-1.5 1.5v0h-7.66c-1.697 0.006-3.212 0.779-4.218 1.991l-0.007 0.009-0.115 0.14v-19.14h6.5c0.828 0 1.5-0.672 1.5-1.5v0-2.5h4c0.828 0 1.5 0.672 1.5 1.5v0z"></path>
<path d="M17.5 4.5c0-0.276-0.224-0.5-0.5-0.5v0h-1.5v1h1.5c0.276 0 0.5-0.224 0.5-0.5v0z"></path>
</symbol>
<symbol id="icon-telegram" viewBox="0 0 32 32">
<path fill="#20a0e1" style="fill: var(--color1, #20a0e1)" d="M3.433 0h25.134c1.896 0 3.433 1.537 3.433 3.433v25.134c0 1.896-1.537 3.433-3.433 3.433h-25.134c-1.896 0-3.433-1.537-3.433-3.433v-25.134c0-1.896 1.537-3.433 3.433-3.433z"></path>
<path fill="#ccd8e6" style="fill: var(--color2, #ccd8e6)" d="M21.088 12.261c0.123-0.245 0.368-0.245 0.368-0.613-0.49 0-0.858 0.368-1.103 0.49l-8.215 5.149 1.594 5.027c0.245-0.245 0.245-0.49 0.245-0.981 0-0.245 0.123-0.736 0.123-0.981v-0.858c0.123-0.123 0.123-0.245 0.123-0.49 0-0.123 0-0.245 0-0.368 0.123-0.245 0.245-0.123 0.368-0.368 1.839-1.962 4.414-4.169 6.498-6.008z"></path>
<path fill="#fefefe" style="fill: var(--color3, #fefefe)" d="M8.092 15.816l4.046 1.471 8.582-5.395c0.245-0.123 0.49-0.245 0.736-0.245 0 0.368-0.49 0.736-0.736 0.981-1.839 1.594-4.904 3.923-6.498 5.762l1.471 1.103c0.245 0 0.858 0.613 0.981 0.736 0.245 0.123 1.226 0.858 1.349 1.103 0.245 0 0.245 0.123 0.368 0.245l1.226 0.858c0.49 0.368 0.981 0.981 1.839 0.368l2.697-12.261c0.368-2.084-0.613-1.716-1.962-1.226l-13.732 5.517c-0.49 0.245-0.981 0.858-0.368 0.981z"></path>
<path fill="#abbdd5" style="fill: var(--color4, #abbdd5)" d="M13.732 22.314l0.123 0.123c0.245 0 0.49-0.123 0.736-0.368l2.084-1.839c-0.123-0.123-0.736-0.736-0.981-0.736l-1.471-1.103-0.49 3.923z"></path>
<path fill="#1a82b7" style="fill: var(--color5, #1a82b7)" d="M32 17.042l-7.969-7.969c0.245 0.245 0.245 0.613 0.123 1.471l-2.697 12.261c-0.858 0.613-1.349 0-1.839-0.368l-1.226-0.858c-0.123-0.123-0.123-0.245-0.368-0.245-0.123-0.245-1.103-0.981-1.349-1.103l-2.084 1.839c-0.245 0.123-0.49 0.245-0.736 0.368l9.686 9.563h5.027l3.433-3.433v-11.525z"></path>
<path fill="#1a82b7" style="fill: var(--color5, #1a82b7)" d="M8.092 15.816l5.272 5.395-1.226-3.923z"></path>
</symbol>
<symbol id="icon-email" viewBox="0 0 32 32">
<path fill="#ececec" style="fill: var(--color6, #ececec)" d="M28.5 10.5v21h-25v-21l0.030-0.045 12.47 8.045 12.47-8.045 0.030 0.045z"></path>
<path fill="#ececec" style="fill: var(--color6, #ececec)" d="M31.5 3.5v1l-15.5 10-15.5-10v-1c0-1.657 1.343-3 3-3v0h25c1.657 0 3 1.343 3 3v0z"></path>
<path fill="#a83229" style="fill: var(--color7, #a83229)" d="M3.53 10.455l-0.030 0.045v21c-1.657 0-3-1.343-3-3v0-20z"></path>
<path fill="#a83229" style="fill: var(--color7, #a83229)" d="M28.5 31.5v-21l-0.030-0.045 3.030-1.955v20c0 1.657-1.343 3-3 3v0z"></path>
<path fill="#d73d3f" style="fill: var(--color8, #d73d3f)" d="M31.5 4.5v4l-15.5 10-15.5-10v-4l15.5 10 15.5-10z"></path>
<path fill="#cbccce" style="fill: var(--color9, #cbccce)" d="M28.5 10.5l-0.030-0.045-12.47 8.045 12.5 8.065v-16.064z"></path>
<path fill="#f7f7f7" style="fill: var(--color10, #f7f7f7)" d="M28.5 0.5h-25c-1.657 0-3 1.343-3 3v0 1l0.141 0.091c0.398-1.222 1.527-2.090 2.858-2.091h25c1.332 0.001 2.46 0.869 2.852 2.070l0.006 0.021 0.142-0.091v-1c0-1.657-1.343-3-3-3v0z"></path>
<path fill="#ff6676" style="fill: var(--color11, #ff6676)" d="M31.5 5.5v-1l-0.142 0.091c0.090 0.271 0.142 0.584 0.142 0.908 0 0 0 0 0 0.001v-0z"></path>
<path fill="#ff6676" style="fill: var(--color11, #ff6676)" d="M0.5 4.5v1c0-0 0-0 0-0.001 0-0.325 0.052-0.637 0.147-0.929l-0.006 0.021z"></path>
<path fill="#cfcfcf" style="fill: var(--color12, #cfcfcf)" d="M3.5 29.5h25v2h-25v-2z"></path>
<path fill="#91323c" style="fill: var(--color13, #91323c)" d="M0.5 26.5v2c0 1.657 1.343 3 3 3v0-2c-1.657 0-3-1.343-3-3v0z"></path>
<path fill="#91323c" style="fill: var(--color13, #91323c)" d="M28.5 29.5v2c1.657 0 3-1.343 3-3v0-2c0 1.657-1.343 3-3 3v0z"></path>
</symbol>
<symbol id="icon-linkedin" viewBox="0 0 32 32">
<path fill="#0281c7" style="fill: var(--color14, #0281c7)" d="M3.5 0.5h25c1.657 0 3 1.343 3 3v25c0 1.657-1.343 3-3 3h-25c-1.657 0-3-1.343-3-3v-25c0-1.657 1.343-3 3-3z"></path>
<path fill="#0291e0" style="fill: var(--color15, #0291e0)" d="M28.5 0.5h-25c-1.657 0-3 1.343-3 3v0 5c0 6.075 4.925 11 11 11v0h9c6.075 0 11-4.925 11-11v0-5c0-1.657-1.343-3-3-3v0z"></path>
<path fill="#0aa8ff" style="fill: var(--color16, #0aa8ff)" d="M28.5 0.5h-25c-1.657 0-3 1.343-3 3v0 2c0-1.657 1.343-3 3-3v0h25c1.657 0 3 1.343 3 3v0-2c0-1.657-1.343-3-3-3v0z"></path>
<path fill="#005a8c" style="fill: var(--color17, #005a8c)" d="M28.5 29.5h-25c-1.657 0-3-1.343-3-3v0 2c0 1.657 1.343 3 3 3v0h25c1.657 0 3-1.343 3-3v0-2c0 1.657-1.343 3-3 3v0z"></path>
<path fill="#fff" style="fill: var(--color18, #fff)" d="M27 17v8h-4v-8.5c0-1.105-1-2-3-2s-3 0.895-3 2v8.5h-4v-14h4v0.475c0.863-0.302 1.857-0.476 2.893-0.476 0.038 0 0.075 0 0.113 0.001l-0.006-0c0.044-0.001 0.096-0.001 0.148-0.001 1.851 0 3.547 0.664 4.864 1.766l-0.012-0.010c1.216 1.024 1.987 2.543 2 4.243v0.002z"></path>
<path fill="#fff" style="fill: var(--color18, #fff)" d="M5 11h4v14h-4v-14z"></path>
<path fill="#fff" style="fill: var(--color18, #fff)" d="M9 7c0 1.105-0.895 2-2 2s-2-0.895-2-2c0-1.105 0.895-2 2-2s2 0.895 2 2z"></path>
<path fill="#005a8c" style="fill: var(--color17, #005a8c)" d="M20 14.5c-2 0-3 0.895-3 2v1.5c0-1.105 1-2 3-2s3 0.895 3 2v-1.5c0-1.105-1-2-3-2z"></path>
<path fill="#005a8c" style="fill: var(--color17, #005a8c)" d="M23 25h4v1.5h-4v-1.5z"></path>
<path fill="#005a8c" style="fill: var(--color17, #005a8c)" d="M13 25h4v1.5h-4v-1.5z"></path>
<path fill="#005a8c" style="fill: var(--color17, #005a8c)" d="M5 25h4v1.5h-4v-1.5z"></path>
<path fill="#005a8c" style="fill: var(--color17, #005a8c)" d="M7 9c-0.833-0.002-1.546-0.512-1.845-1.237l-0.005-0.013c-0.094 0.224-0.149 0.484-0.149 0.756 0 1.105 0.895 2 2 2s2-0.895 2-2c0-0.273-0.055-0.533-0.153-0.769l0.005 0.013c-0.305 0.739-1.019 1.25-1.853 1.25h-0z"></path>
</symbol>
<symbol id="icon-whatsapp" viewBox="0 0 32 32">
<path fill="#48c658" style="fill: var(--color19, #48c658)" d="M3.5 0.5h25c1.657 0 3 1.343 3 3v25c0 1.657-1.343 3-3 3h-25c-1.657 0-3-1.343-3-3v-25c0-1.657 1.343-3 3-3z"></path>
<path fill="#62d96e" style="fill: var(--color20, #62d96e)" d="M28.5 0.5h-25c-1.657 0-3 1.343-3 3v0 5c0 6.075 4.925 11 11 11v0h9c6.075 0 11-4.925 11-11v0-5c0-1.657-1.343-3-3-3v0z"></path>
<path fill="#73ff81" style="fill: var(--color21, #73ff81)" d="M28.5 0.5h-25c-1.657 0-3 1.343-3 3v0 2c0-1.657 1.343-3 3-3v0h25c1.657 0 3 1.343 3 3v0-2c0-1.657-1.343-3-3-3v0z"></path>
<path fill="#219938" style="fill: var(--color22, #219938)" d="M28.5 29.5h-25c-1.657 0-3-1.343-3-3v0 2c0 1.657 1.343 3 3 3v0h25c1.657 0 3-1.343 3-3v0-2c0 1.657-1.343 3-3 3v0z"></path>
<path fill="#fff" style="fill: var(--color18, #fff)" d="M16 4.5c-6.351 0-11.499 5.149-11.499 11.5 0 2.162 0.596 4.184 1.634 5.912l-0.029-0.052-1.606 2.14h3.243c2.093 2.16 5.021 3.5 8.261 3.5 6.351 0 11.5-5.149 11.5-11.5s-5.149-11.5-11.5-11.5c-0.001 0-0.003 0-0.004 0h0z"></path>
<path fill="#48c658" style="fill: var(--color19, #48c658)" d="M25 16c0 4.971-4.029 9-9 9s-9-4.029-9-9c0-4.971 4.029-9 9-9s9 4.029 9 9z"></path>
<path fill="#fff" style="fill: var(--color18, #fff)" d="M13.341 13.65l0.683-0.683c0.117-0.117 0.189-0.278 0.189-0.456s-0.072-0.339-0.189-0.456l-1.366-1.367c-0.117-0.117-0.278-0.189-0.456-0.189s-0.339 0.072-0.456 0.189l-0.911 0.911c-1.006 1.006 0.319 3.963 2.96 6.603s5.6 3.966 6.604 2.96l0.911-0.911c0.116-0.117 0.189-0.278 0.189-0.456s-0.072-0.339-0.189-0.456v0l-1.366-1.366c-0.117-0.116-0.278-0.189-0.456-0.189s-0.339 0.072-0.456 0.189l-0.684 0.683s-1.366 0-3.188-1.822-1.821-3.187-1.821-3.187z"></path>
<path fill="#219938" style="fill: var(--color22, #219938)" d="M16 27.5c-0.003 0-0.007 0-0.011 0-3.236 0-6.159-1.341-8.243-3.497l-0.003-0.003h-2.117l-1.125 1.5h3.242c2.093 2.159 5.020 3.5 8.26 3.5 6.35 0 11.498-5.148 11.498-11.498 0-0.001 0-0.002 0-0.002v0c0-0.253-0.011-0.5-0.027-0.75-0.405 6.019-5.387 10.749-11.473 10.75h-0z"></path>
<path fill="#219938" style="fill: var(--color22, #219938)" d="M4.526 16.762c-0.016 0.244-0.026 0.488-0.026 0.738 0 0.001 0 0.002 0 0.004 0 1.81 0.421 3.523 1.17 5.044l-0.030-0.067 0.466-0.621c-0.882-1.46-1.453-3.2-1.578-5.062l-0.002-0.035z"></path>
<path fill="#219938" style="fill: var(--color22, #219938)" d="M13.531 14.459l0.493-0.492c0.117-0.117 0.189-0.278 0.189-0.456s-0.072-0.339-0.189-0.456v0l-0.044-0.044-0.639 0.639c0.023 0.297 0.090 0.571 0.197 0.826l-0.007-0.018z"></path>
<path fill="#219938" style="fill: var(--color22, #219938)" d="M21.267 20.297l-0.867 0.866c-1.006 1.006-3.962-0.32-6.604-2.96-1.791-1.791-2.974-3.725-3.238-5.1-0.35 1.288 0.95 3.812 3.238 6.1 2.641 2.641 5.6 3.966 6.604 2.96l0.911-0.911c0.116-0.117 0.189-0.278 0.189-0.456s-0.072-0.339-0.189-0.456v0z"></path>
</symbol>
<symbol id="icon-js" viewBox="0 0 32 32">
<path d="M10.5 11c1.105 0 2-0.895 2-2v0-3.5c0-0.276-0.224-0.5-0.5-0.5s-0.5 0.224-0.5 0.5v0 3.5c0 0.552-0.448 1-1 1s-1-0.448-1-1v0c0-0.276-0.224-0.5-0.5-0.5s-0.5 0.224-0.5 0.5v0c0 1.105 0.895 2 2 2v0z"></path>
<path d="M21.5 21c-0.552 0-1-0.448-1-1v0-1c0-1.105-0.895-2-2-2v0c-0.276 0-0.5 0.224-0.5 0.5s0.224 0.5 0.5 0.5v0c0.552 0 1 0.448 1 1v0 1c0.001 0.597 0.263 1.132 0.678 1.498l0.002 0.002c-0.417 0.368-0.679 0.903-0.68 1.5v1c0 0.552-0.448 1-1 1v0c-0.276 0-0.5 0.224-0.5 0.5s0.224 0.5 0.5 0.5v0c1.105 0 2-0.895 2-2v0-1c0-0.552 0.448-1 1-1v0c0.276 0 0.5-0.224 0.5-0.5s-0.224-0.5-0.5-0.5v0z"></path>
<path d="M10.5 19c0-0.552 0.448-1 1-1v0c0.276 0 0.5-0.224 0.5-0.5s-0.224-0.5-0.5-0.5v0c-1.105 0-2 0.895-2 2v0 1c0 0.552-0.448 1-1 1v0c-0.276 0-0.5 0.224-0.5 0.5s0.224 0.5 0.5 0.5v0c0.552 0 1 0.448 1 1v0 1c0 1.105 0.895 2 2 2v0c0.276 0 0.5-0.224 0.5-0.5s-0.224-0.5-0.5-0.5v0c-0.552 0-1-0.448-1-1v0-1c-0.001-0.597-0.263-1.132-0.678-1.498l-0.002-0.002c0.417-0.368 0.679-0.903 0.68-1.5v-0z"></path>
<path d="M15.5 20c0 0.276-0.224 0.5-0.5 0.5s-0.5-0.224-0.5-0.5c0-0.276 0.224-0.5 0.5-0.5s0.5 0.224 0.5 0.5z"></path>
<path d="M15 22.5c-0.276 0-0.5 0.224-0.5 0.5v0c0 0.276-0.224 0.5-0.5 0.5v0c-0.276 0-0.5 0.224-0.5 0.5s0.224 0.5 0.5 0.5v0c0.828 0 1.5-0.672 1.5-1.5v0c0-0.276-0.224-0.5-0.5-0.5v0z"></path>
<path d="M15.75 10h-0.75c-0.276 0-0.5-0.224-0.5-0.5v0c0-0.276-0.224-0.5-0.5-0.5s-0.5 0.224-0.5 0.5v0c0 0.828 0.672 1.5 1.5 1.5v0h0.75c0.966 0 1.75-0.784 1.75-1.75s-0.784-1.75-1.75-1.75v0h-0.5c-0.414 0-0.75-0.336-0.75-0.75s0.336-0.75 0.75-0.75v0h0.75c0.276 0 0.5 0.224 0.5 0.5v0c0 0.276 0.224 0.5 0.5 0.5s0.5-0.224 0.5-0.5v0c0-0.828-0.672-1.5-1.5-1.5v0h-0.75c-0.966 0-1.75 0.784-1.75 1.75s0.784 1.75 1.75 1.75v0h0.5c0.414 0 0.75 0.336 0.75 0.75s-0.336 0.75-0.75 0.75v0z"></path>
<path d="M27 21.5c0 0.276-0.224 0.5-0.5 0.5s-0.5-0.224-0.5-0.5c0-0.276 0.224-0.5 0.5-0.5s0.5 0.224 0.5 0.5z"></path>
<path d="M28.5 1h-23c-0.276 0-0.5 0.224-0.5 0.5v0 1.5h-1.5c-0.276 0-0.5 0.224-0.5 0.5v0 27c0 0.276 0.224 0.5 0.5 0.5v0h23c0.276 0 0.5-0.224 0.5-0.5v0-1.5h1.5c0.276 0 0.5-0.224 0.5-0.5v0-27c0-0.276-0.224-0.5-0.5-0.5v0zM21 4v3.5c0 0.828 0.672 1.5 1.5 1.5v0h3.5v3h-22v-8zM22 4.705l3.295 3.295h-2.795c-0.276 0-0.5-0.224-0.5-0.5v0zM28 28h-1v-4.5c0-0.276-0.224-0.5-0.5-0.5s-0.5 0.224-0.5 0.5v0 6.5h-22v-17h22v6.5c0 0.276 0.224 0.5 0.5 0.5s0.5-0.224 0.5-0.5v0-11c0-0.001 0-0.002 0-0.003 0-0.137-0.055-0.262-0.145-0.352l-5-5c-0.090-0.090-0.215-0.145-0.352-0.145-0.001 0-0.002 0-0.003 0h-15.5v-1h22z"></path>
</symbol>
<symbol id="icon-css" viewBox="0 0 32 32">
<path d="M8 11h1c0.276 0 0.5-0.224 0.5-0.5s-0.224-0.5-0.5-0.5v0h-1c-0.828 0-1.5-0.672-1.5-1.5v0-1c0-0.828 0.672-1.5 1.5-1.5v0h1c0.276 0 0.5-0.224 0.5-0.5s-0.224-0.5-0.5-0.5v0h-1c-1.381 0-2.5 1.119-2.5 2.5v0 1c0 1.381 1.119 2.5 2.5 2.5v0z"></path>
<path d="M21.5 21c-0.552 0-1-0.448-1-1v0-1c0-1.105-0.895-2-2-2v0c-0.276 0-0.5 0.224-0.5 0.5s0.224 0.5 0.5 0.5v0c0.552 0 1 0.448 1 1v0 1c0.001 0.597 0.263 1.132 0.678 1.498l0.002 0.002c-0.417 0.368-0.679 0.903-0.68 1.5v1c0 0.552-0.448 1-1 1v0c-0.276 0-0.5 0.224-0.5 0.5s0.224 0.5 0.5 0.5v0c1.105 0 2-0.895 2-2v0-1c0-0.552 0.448-1 1-1v0c0.276 0 0.5-0.224 0.5-0.5s-0.224-0.5-0.5-0.5v0z"></path>
<path d="M10.5 19c0-0.552 0.448-1 1-1v0c0.276 0 0.5-0.224 0.5-0.5s-0.224-0.5-0.5-0.5v0c-1.105 0-2 0.895-2 2v0 1c0 0.552-0.448 1-1 1v0c-0.276 0-0.5 0.224-0.5 0.5s0.224 0.5 0.5 0.5v0c0.552 0 1 0.448 1 1v0 1c0 1.105 0.895 2 2 2v0c0.276 0 0.5-0.224 0.5-0.5s-0.224-0.5-0.5-0.5v0c-0.552 0-1-0.448-1-1v0-1c-0.001-0.597-0.263-1.132-0.678-1.498l-0.002-0.002c0.417-0.368 0.679-0.903 0.68-1.5v-0z"></path>
<path d="M17.75 10h-0.75c-0.276 0-0.5-0.224-0.5-0.5v0c0-0.276-0.224-0.5-0.5-0.5s-0.5 0.224-0.5 0.5v0c0 0.828 0.672 1.5 1.5 1.5v0h0.75c0.966 0 1.75-0.784 1.75-1.75s-0.784-1.75-1.75-1.75v0h-0.5c-0.414 0-0.75-0.336-0.75-0.75s0.336-0.75 0.75-0.75v0h0.75c0.276 0 0.5 0.224 0.5 0.5v0c0 0.276 0.224 0.5 0.5 0.5s0.5-0.224 0.5-0.5v0c0-0.828-0.672-1.5-1.5-1.5v0h-0.75c-0.966 0-1.75 0.784-1.75 1.75s0.784 1.75 1.75 1.75v0h0.5c0.414 0 0.75 0.336 0.75 0.75s-0.336 0.75-0.75 0.75v0z"></path>
<path d="M12.75 10h-0.75c-0.276 0-0.5-0.224-0.5-0.5v0c0-0.276-0.224-0.5-0.5-0.5s-0.5 0.224-0.5 0.5v0c0 0.828 0.672 1.5 1.5 1.5v0h0.75c0.966 0 1.75-0.784 1.75-1.75s-0.784-1.75-1.75-1.75v0h-0.5c-0.414 0-0.75-0.336-0.75-0.75s0.336-0.75 0.75-0.75v0h0.75c0.276 0 0.5 0.224 0.5 0.5v0c0 0.276 0.224 0.5 0.5 0.5s0.5-0.224 0.5-0.5v0c0-0.828-0.672-1.5-1.5-1.5v0h-0.75c-0.966 0-1.75 0.784-1.75 1.75s0.784 1.75 1.75 1.75v0h0.5c0.414 0 0.75 0.336 0.75 0.75s-0.336 0.75-0.75 0.75v0z"></path>
<path d="M27 21.5c0 0.276-0.224 0.5-0.5 0.5s-0.5-0.224-0.5-0.5c0-0.276 0.224-0.5 0.5-0.5s0.5 0.224 0.5 0.5z"></path>
<path d="M28.5 1h-23c-0.276 0-0.5 0.224-0.5 0.5v0 1.5h-1.5c-0.276 0-0.5 0.224-0.5 0.5v0 27c0 0.276 0.224 0.5 0.5 0.5v0h23c0.276 0 0.5-0.224 0.5-0.5v0-1.5h1.5c0.276 0 0.5-0.224 0.5-0.5v0-27c0-0.276-0.224-0.5-0.5-0.5v0zM21 4v3.5c0 0.828 0.672 1.5 1.5 1.5v0h3.5v3h-22v-8zM22 4.705l3.295 3.295h-2.795c-0.276 0-0.5-0.224-0.5-0.5v0zM28 28h-1v-4.5c0-0.276-0.224-0.5-0.5-0.5s-0.5 0.224-0.5 0.5v0 6.5h-22v-17h22v6.5c0 0.276 0.224 0.5 0.5 0.5s0.5-0.224 0.5-0.5v0-11c0-0.001 0-0.002 0-0.003 0-0.137-0.055-0.262-0.145-0.352l-5-5c-0.090-0.090-0.215-0.145-0.352-0.145-0.001 0-0.002 0-0.003 0h-15.5v-1h22z"></path>
</symbol>
<symbol id="icon-html" viewBox="0 0 32 32">
<path d="M11 6h1v4.5c0 0.276 0.224 0.5 0.5 0.5s0.5-0.224 0.5-0.5v0-4.5h1c0.276 0 0.5-0.224 0.5-0.5s-0.224-0.5-0.5-0.5v0h-3c-0.276 0-0.5 0.224-0.5 0.5s0.224 0.5 0.5 0.5v0z"></path>
<path d="M6 11c0.276 0 0.5-0.224 0.5-0.5v0-2h2v2c0 0.276 0.224 0.5 0.5 0.5s0.5-0.224 0.5-0.5v0-5c0-0.276-0.224-0.5-0.5-0.5s-0.5 0.224-0.5 0.5v0 2h-2v-2c0-0.276-0.224-0.5-0.5-0.5s-0.5 0.224-0.5 0.5v0 5c0 0.276 0.224 0.5 0.5 0.5v0z"></path>
<path d="M11.35 17.1c-0.083-0.064-0.188-0.102-0.302-0.102-0.162 0-0.305 0.077-0.397 0.196l-0.001 0.001-3.050 4c-0.065 0.083-0.104 0.19-0.104 0.305s0.039 0.222 0.105 0.306l-0.001-0.001 3.050 4c0.092 0.12 0.236 0.197 0.398 0.197 0.114 0 0.219-0.038 0.304-0.103l-0.001 0.001c0.122-0.092 0.199-0.237 0.199-0.399 0-0.116-0.039-0.222-0.105-0.307l0.001 0.001-2.815-3.695 2.815-3.695c0.065-0.084 0.104-0.19 0.104-0.306 0-0.163-0.078-0.307-0.198-0.399l-0.001-0.001z"></path>
<path d="M19.345 17.195c-0.092-0.12-0.236-0.196-0.397-0.196-0.117 0-0.224 0.040-0.309 0.107l0.001-0.001c-0.118 0.092-0.194 0.235-0.194 0.395 0 0.115 0.039 0.221 0.105 0.306l-0.001-0.001 2.82 3.695-2.82 3.695c-0.065 0.083-0.104 0.19-0.104 0.305 0 0.16 0.075 0.303 0.193 0.394l0.001 0.001c0.084 0.066 0.191 0.106 0.308 0.106 0.161 0 0.305-0.076 0.396-0.195l0.001-0.001 3.050-4c0.065-0.083 0.104-0.19 0.104-0.305s-0.039-0.222-0.105-0.306l0.001 0.001z"></path>
<path d="M16 17c-0.032-0.007-0.068-0.011-0.106-0.011-0.239 0-0.44 0.168-0.489 0.393l-0.001 0.003-1.75 8c-0.007 0.032-0.011 0.068-0.011 0.105 0 0.282 0.229 0.511 0.511 0.511 0.245 0 0.45-0.172 0.499-0.403l0.001-0.003 1.75-8c0.007-0.031 0.011-0.066 0.011-0.102 0-0.246-0.178-0.451-0.413-0.492l-0.003-0z"></path>
<path d="M16 11c0.276 0 0.5-0.224 0.5-0.5v0-3.195l0.57 0.95c0.089 0.148 0.248 0.245 0.43 0.245s0.341-0.097 0.429-0.243l0.001-0.002 0.57-0.95v3.195c0 0.276 0.224 0.5 0.5 0.5s0.5-0.224 0.5-0.5v0-5c-0-0.276-0.224-0.5-0.5-0.5-0.182 0-0.341 0.097-0.429 0.243l-0.001 0.002-1.070 1.785-1.070-1.785c-0.089-0.148-0.248-0.245-0.43-0.245-0.276 0-0.5 0.224-0.5 0.5v0 5c0 0.276 0.224 0.5 0.5 0.5v0z"></path>
<path d="M27 21.5c0 0.276-0.224 0.5-0.5 0.5s-0.5-0.224-0.5-0.5c0-0.276 0.224-0.5 0.5-0.5s0.5 0.224 0.5 0.5z"></path>
<path d="M28.5 1h-23c-0.276 0-0.5 0.224-0.5 0.5v0 1.5h-1.5c-0.276 0-0.5 0.224-0.5 0.5v0 27c0 0.276 0.224 0.5 0.5 0.5v0h23c0.276 0 0.5-0.224 0.5-0.5v0-1.5h1.5c0.276 0 0.5-0.224 0.5-0.5v0-27c0-0.276-0.224-0.5-0.5-0.5v0zM21 4v3.5c0 0.828 0.672 1.5 1.5 1.5v0h3.5v3h-22v-8zM22 4.705l3.295 3.295h-2.795c-0.276 0-0.5-0.224-0.5-0.5v0zM28 28h-1v-4.5c0-0.276-0.224-0.5-0.5-0.5s-0.5 0.224-0.5 0.5v0 6.5h-22v-17h22v6.5c0 0.276 0.224 0.5 0.5 0.5s0.5-0.224 0.5-0.5v0-11c0-0.001 0-0.002 0-0.003 0-0.137-0.055-0.262-0.145-0.352l-5-5c-0.090-0.090-0.215-0.145-0.352-0.145-0.001 0-0.002 0-0.003 0h-15.5v-1h22z"></path>
</symbol>
</defs>
</svg>
